<svg width="100" height="100" viewBox="0 0 100 100" xmlns="http://www.w3.org/2000/svg">
  <g fill="none" stroke="#4ade80" stroke-width="1" opacity="0.2">
    <rect x="10" y="10" width="80" height="80" rx="5" ry="5"/>
    <path d="M20 10 V0 M80 10 V0 M20 90 V100 M80 90 V100" />
    <path d="M10 20 H0 M10 80 H0 M90 20 H100 M90 80 H100" />
    <circle cx="30" cy="30" r="3"/>
    <circle cx="70" cy="30" r="3"/>
    <circle cx="30" cy="70" r="3"/>
    <circle cx="70" cy="70" r="3"/>
    <line x1="30" y1="30" x2="70" y2="30"/>
    <line x1="30" y1="70" x2="70" y2="70"/>
    <line x1="30" y1="30" x2="30" y2="70"/>
    <line x1="70" y1="30" x2="70" y2="70"/>
  </g>
</svg>