<?xml version="1.0" standalone="no"?>
<!DOCTYPE svg PUBLIC "-//W3C//DTD SVG 20010904//EN"
 "http://www.w3.org/TR/2001/REC-SVG-20010904/DTD/svg10.dtd">
<svg version="1.0" xmlns="http://www.w3.org/2000/svg"
 width="500.000000pt" height="500.000000pt" viewBox="0 0 500.000000 500.000000"
 preserveAspectRatio="xMidYMid meet">

<g transform="translate(0.000000,500.000000) scale(0.100000,-0.100000)"
fill="#000000" stroke="none">
<path d="M0 2500 l0 -2500 2495 0 2495 0 0 2500 0 2500 -2495 0 -2495 0 0
-2500z m2537 1178 c6 -5 30 -55 54 -111 52 -124 172 -325 307 -514 95 -135 99
-141 66 -127 -31 13 -38 11 -35 -9 1 -4 -6 -10 -14 -13 -8 -4 -15 -11 -15 -16
0 -6 -7 -16 -15 -22 -9 -6 -17 -21 -18 -34 0 -12 -5 -22 -10 -22 -5 0 -6 -7
-3 -16 3 -8 2 -12 -4 -9 -5 3 -25 -19 -44 -49 -19 -29 -39 -57 -45 -60 -5 -4
-8 -15 -6 -25 3 -15 -2 -18 -26 -16 -16 1 -29 -1 -29 -6 0 -5 4 -9 9 -9 5 0 8
-8 6 -17 -1 -10 4 -31 13 -48 23 -46 12 -32 -107 148 -78 116 -117 167 -130
167 -13 0 -57 -58 -146 -192 -158 -238 -176 -277 -183 -385 -2 -46 -8 -83 -13
-83 -5 0 -9 5 -9 10 0 16 -47 12 -54 -5 -7 -20 -21 -19 -42 2 -15 16 -16 9
-12 -113 l4 -129 56 -135 c50 -121 88 -230 88 -252 0 -39 -89 48 -162 159 -74
112 -129 328 -113 443 l6 45 -21 -42 c-12 -24 -26 -40 -31 -37 -5 3 -9 0 -9
-5 0 -6 -7 -11 -16 -11 -8 0 -22 -7 -30 -15 -9 -8 -25 -15 -37 -16 -20 -1 -20
-2 3 -9 17 -5 19 -8 8 -9 -10 -1 -18 -6 -18 -11 0 -6 -6 -5 -14 2 -8 7 -12 16
-9 20 2 4 -3 5 -11 2 -9 -3 -15 -9 -14 -12 0 -4 0 -16 -1 -26 -1 -16 -4 -17
-13 -8 -20 20 -16 231 5 316 49 197 127 331 442 766 100 138 187 286 246 420
52 120 73 144 114 133 11 -3 25 -10 32 -15z m484 -795 c13 -16 12 -17 -3 -4
-17 13 -22 21 -14 21 2 0 10 -8 17 -17z m-1308 -863 c-3 -11 -7 -20 -9 -20 -2
0 -4 9 -4 20 0 11 4 20 9 20 5 0 7 -9 4 -20z"/>
</g>
</svg>
