<svg xmlns="http://www.w3.org/2000/svg" id="uuid-98ba41da-6b1c-4c38-9630-d2f19a37597c" data-name="Layer 1" viewBox="0 0 512.81 365.5"><g><path d="M149.52,207.71h-16.26l9.25,62.98h16.55l-9.54-62.98ZM138.73,136.53h-20.68l-20.91,62.98h15.71l13.11-38.99h.36l5.73,38.99h16.22l-9.54-62.98ZM94.42,207.71l-12.52,37.74h-.18l-12.9-37.74h-16.4l21.56,62.98h14.93l21.18-62.98h-15.67ZM44.5,136.53h-20.33l-9.63,62.98h16.1l5.58-38.09h.36l13.04,38.09h16.4l-21.52-62.98ZM13.3,207.71l-9.63,62.98h16.55l9.22-62.98H13.3Z" stroke-width="0"></path><path d="M377.24,207.7c-1.87,37.79-29.46,65.69-66.26,65.69-12.37,0-23.67-3.1-33.33-8.64-.01,0-.01.01-.02.01-9.61,5.55-20.87,8.65-33.15,8.65-36.98,0-64.59-27.74-66.44-65.69h17.1c1.85,31.72,25.01,49.81,49.34,49.81,6.55,0,13-1.32,18.97-3.88.01,0,.01-.01.02-.01h0c-11.11-11.6-18.04-27.58-18.93-45.94h17.1c.92,15.73,7.07,28.12,16.02,36.59,8.93-8.5,15.08-20.89,15.99-36.57h17.1c-.9,18.29-7.84,34.28-18.92,45.89,6.04,2.57,12.54,3.91,19.15,3.91,24.32,0,47.31-18.24,49.15-49.81h0s17.12-.01,17.12-.01Z" stroke-width="0"></path><path d="M377.21,199.5h-17.1c-1.83-31.56-24.83-49.81-49.15-49.81-6.68,0-13.24,1.34-19.28,3.93,11.16,11.66,18.14,27.68,19.05,45.9h-17.1c-.91-15.71-7.07-28.12-16.02-36.62h-.01c-8.96,8.48-15.07,20.89-15.98,36.6h-17.1c.92-18.19,7.9-34.2,19.06-45.86-6.01-2.6-12.5-3.94-19.1-3.94-24.67,0-47.52,18.24-49.34,49.81h-17.1c1.88-37.47,29.47-65.68,66.44-65.68,12.3,0,23.56,3.15,33.18,8.74,9.65-5.59,20.96-8.74,33.31-8.74,36.79,0,64.37,28.21,66.24,65.67Z" stroke-width="0"></path><path d="M495.12,207.71v34.13h-.18l-23.55-34.13h-19.02l43.46,62.98h15.47v-62.98h-16.18ZM495.12,136.53v62.98h16.19v-62.98h-16.19ZM422.29,136.53h-16.91v62.98h16.37v-35.92h.18l24.8,35.92h19.02l-43.46-62.98ZM405.38,207.71v62.98h16.37v-62.98h-16.37Z" stroke-width="0"></path><path d="M37.56,303.37v-8.03H0v68.68h37.56v-7.94H8.56v-23.26h26.89v-7.57H8.56v-21.88h29Z" stroke-width="0"></path><path d="M93.64,295.33l-19.61,31.75h-.1l-19.79-31.75h-9.67l25.23,39.7v28.99h8.38v-29.08l25.04-39.6h-9.48Z" stroke-width="0"></path><path d="M150.8,303.37v-8.03h-37.56v68.68h37.56v-7.94h-29v-23.26h26.89v-7.57h-26.89v-21.88h29Z" stroke-width="0"></path><path d="M208.16,295.33h-16.58v68.68h16.58c21.63,0,36.36-13.58,36.36-34.34s-14.26-34.34-36.36-34.34ZM208.52,355.99h-8.38v-52.62h8.47c15.74,0,27.15,9.41,27.15,26.4.02,16.71-11.4,26.22-27.24,26.22Z" stroke-width="0"></path><path d="M296.54,303.37v-8.03h-37.56v68.68h37.56v-7.94h-29.01v-23.26h26.89v-7.57h-26.89v-21.88h29.01Z" stroke-width="0"></path><path d="M331.71,325.25c-9.4-4.24-14.18-7.11-14.18-13.11,0-6.83,6.08-10.25,13.07-10.25,5.34,0,11.42,1.94,16.2,5.36v-8.86c-4.05-2.49-9.94-4.53-16.29-4.53-12.06,0-21.63,6.83-21.63,18.75,0,10.89,8.1,15.05,18.14,19.57,9.57,4.34,14.63,7.47,14.63,13.84,0,7.38-6.63,11.45-14.27,11.45-6.9,0-14.08-3.14-18.78-7.94v9.6c4.14,3.23,11.14,6.37,19.16,6.37,12.42,0,22.74-7.39,22.74-20.04-.01-11.17-8.39-15.6-18.79-20.21Z" stroke-width="0"></path><path d="M364.39,295.33v68.68h8.56v-68.68h-8.56Z" stroke-width="0"></path><path d="M434.63,326.91v27.23c-4.05,2.04-7.83,3.05-13.44,3.05-13.99,0-25.14-11.17-25.14-27.42s11.33-27.41,25.6-27.41c6.9,0,13.26,1.94,19.34,5.72v-9.14c-5.44-3.14-12.43-4.98-19.71-4.98-18.5,0-33.97,14.12-33.97,35.81s15.74,35.63,33.78,35.63c8.56,0,15.29-2.22,21.73-5.91v-32.58h-8.19Z" stroke-width="0"></path><path d="M504.51,295.33v53.91h-.09l-37.2-53.91h-8.65v68.68h8.38v-54.83h.09l37.85,54.83h7.92v-68.68h-8.3Z" stroke-width="0"></path></g><polygon points="298.93 78.4 303.26 86.35 311.19 90.7 303.26 95.05 298.93 103 294.59 95.05 286.66 90.7 294.59 86.35 298.93 78.4" stroke-width="0"></polygon><polygon points="249.9 21.32 255.05 48.93 284.19 54.52 255.05 58.95 249.9 89.04 244.49 58.95 214.83 55.18 244.49 48.93 249.9 21.32" stroke-width="0"></polygon><polygon points="302.7 0 305.1 12.88 318.7 15.49 305.1 17.56 302.7 31.59 300.18 17.56 286.34 15.8 300.18 12.88 302.7 0" stroke-width="0"></polygon></svg>